<?xml version="1.0" encoding="utf-8"?>
<!-- Generator: Adobe Illustrator 23.0.6, SVG Export Plug-In . SVG Version: 6.00 Build 0)  -->
<svg version="1.1" id="Layer_1" xmlns="http://www.w3.org/2000/svg" xmlns:xlink="http://www.w3.org/1999/xlink" x="0px" y="0px"
	 viewBox="0 0 41 38" style="enable-background:new 0 0 41 38;" xml:space="preserve">
<style type="text/css">
	.st0{fill-rule:evenodd;clip-rule:evenodd;fill:#FFFFFF;stroke:#999999;stroke-width:3;}
	.st1{fill:none;stroke:#6AAAE4;stroke-width:2;}
	.st2{filter:url(#Adobe_OpacityMaskFilter);}
	.st3{fill-rule:evenodd;clip-rule:evenodd;fill:#FFFFFF;}
	.st4{mask:url(#mask-2_1_);fill-rule:evenodd;clip-rule:evenodd;fill:#EFEEEE;stroke:#6AAAE4;stroke-width:1.241;}
	.st5{fill:none;stroke:#4C4C4F;}
	.st6{filter:url(#Adobe_OpacityMaskFilter_1_);}
	.st7{mask:url(#mask-4_1_);fill:none;stroke:#4C4C4F;}
	.st8{filter:url(#Adobe_OpacityMaskFilter_2_);}
	.st9{mask:url(#mask-4_2_);}
	.st10{fill-rule:evenodd;clip-rule:evenodd;fill:#BBBBBB;}
	.st11{filter:url(#Adobe_OpacityMaskFilter_3_);}
	.st12{mask:url(#mask-6_1_);fill-rule:evenodd;clip-rule:evenodd;fill:#949494;}
	.st13{filter:url(#Adobe_OpacityMaskFilter_4_);}
	.st14{mask:url(#mask-4_3_);fill-rule:evenodd;clip-rule:evenodd;fill:#4C4C4F;}
</style>
<title>NoSellData_Icon</title>
<desc>Created with Sketch.</desc>
<g id="Page-1">
	<g id="Buttons" transform="translate(-937.000000, -332.000000)">
		<g id="Icon" transform="translate(937.000000, 332.000000)">
			<g id="Combined-Shape" transform="translate(3.000000, 3.000000)">
				<g id="Mask">
					<path class="st0" d="M14.5,29.5c-8.8,0-16-6.8-16-15c0-9,7-16,16-16c8.2,0,15,7.1,15,16C29.5,22.5,22.5,29.5,14.5,29.5z"/>
					<path class="st1" d="M14.5,29C5.9,29-1,22.4-1,14.5C-1,5.7,5.7-1,14.5-1C22.4-1,29,5.9,29,14.5C29,22.3,22.3,29,14.5,29z"/>
				</g>
				<defs>
					<filter id="Adobe_OpacityMaskFilter" filterUnits="userSpaceOnUse" x="2.6" y="5.3" width="22.8" height="26.2">
						<feColorMatrix  type="matrix" values="1 0 0 0 0  0 1 0 0 0  0 0 1 0 0  0 0 0 1 0"/>
					</filter>
				</defs>
				<mask maskUnits="userSpaceOnUse" x="2.6" y="5.3" width="22.8" height="26.2" id="mask-2_1_">
					<g class="st2">
						<path id="path-1_1_" class="st3" d="M14.5,28C6.3,28,0,21.7,0,14.5C0,6.3,6.3,0,14.5,0C21.7,0,28,6.3,28,14.5
							C28,21.7,21.7,28,14.5,28z"/>
					</g>
				</mask>
				<path class="st4" d="M8.4,18.8c-4.2,1.1-5.1,2.6-5.2,8.4c0,0.5,0,0.8,0,1c0,0.1,0.1,0.1,0.2,0.2c0.3,0.3,0.8,0.7,1.5,1
					c1.9,0.9,4.9,1.5,9.1,1.5c4.2,0,7.1-0.6,9.1-1.5c0.7-0.3,1.1-0.7,1.5-1c0.1-0.1,0.2-0.2,0.2-0.2c0-0.2,0-0.4,0-0.8
					c-0.1-5.9-0.9-7.5-5.2-8.6C18,20.1,16,20.9,14,20.9C12,20.9,10,20.1,8.4,18.8z M14,18.3c3,0,5.4-2.8,5.4-6.2
					c0-4.4-1.3-6.2-5.4-6.2c-4.1,0-5.4,1.9-5.4,6.2C8.6,15.6,11,18.3,14,18.3z"/>
			</g>
			<path class="st5" d="M32.3,37.5c4.4,0,8.2-3.8,8.2-8.2c0-4.9-3.7-8.8-8.2-8.8c-5,0-8.8,3.8-8.8,8.8
				C23.5,33.8,27.4,37.5,32.3,37.5z"/>
			<defs>
				<filter id="Adobe_OpacityMaskFilter_1_" filterUnits="userSpaceOnUse" x="29" y="24" width="6" height="8">
					<feColorMatrix  type="matrix" values="1 0 0 0 0  0 1 0 0 0  0 0 1 0 0  0 0 0 1 0"/>
				</filter>
			</defs>
			<mask maskUnits="userSpaceOnUse" x="29" y="24" width="6" height="8" id="mask-4_1_">
				<g class="st6">
					<path id="path-3_1_" class="st3" d="M32.3,38C27,38,23,34,23,29.3c0-5.3,4-9.3,9.3-9.3c4.7,0,8.7,4,8.7,9.3
						C41,34,37,38,32.3,38z"/>
				</g>
			</mask>
			<path id="Rectangle" class="st7" d="M32,24.5L32,24.5c1.4,0,2.5,1.1,2.5,2.5v2c0,1.4-1.1,2.5-2.5,2.5l0,0c-1.4,0-2.5-1.1-2.5-2.5
				v-2C29.5,25.6,30.6,24.5,32,24.5z"/>
			<defs>
				<filter id="Adobe_OpacityMaskFilter_2_" filterUnits="userSpaceOnUse" x="28" y="27" width="8" height="8">
					<feColorMatrix  type="matrix" values="1 0 0 0 0  0 1 0 0 0  0 0 1 0 0  0 0 0 1 0"/>
				</filter>
			</defs>
			<mask maskUnits="userSpaceOnUse" x="28" y="27" width="8" height="8" id="mask-4_2_">
				<g class="st8">
					<path id="path-3_2_" class="st3" d="M32.3,38C27,38,23,34,23,29.3c0-5.3,4-9.3,9.3-9.3c4.7,0,8.7,4,8.7,9.3
						C41,34,37,38,32.3,38z"/>
				</g>
			</mask>
			<g class="st9">
				<g transform="translate(28.000000, 28.000000)">
					<g>
						<path class="st10" d="M1,0h6c0.6,0,1,0.4,1,1v4c0,0.6-0.4,1-1,1H1C0.4,6,0,5.6,0,5V1C0,0.4,0.4,0,1,0z"/>
					</g>
					<defs>
						<filter id="Adobe_OpacityMaskFilter_3_" filterUnits="userSpaceOnUse" x="4" y="-1" width="4" height="8">
							<feColorMatrix  type="matrix" values="1 0 0 0 0  0 1 0 0 0  0 0 1 0 0  0 0 0 1 0"/>
						</filter>
					</defs>
					<mask maskUnits="userSpaceOnUse" x="4" y="-1" width="4" height="8" id="mask-6_1_">
						<g class="st11">
							<path id="path-5_1_" class="st3" d="M1,0h6c0.6,0,1,0.4,1,1v4c0,0.6-0.4,1-1,1H1C0.4,6,0,5.6,0,5V1C0,0.4,0.4,0,1,0z"/>
						</g>
					</mask>
					<path class="st12" d="M5-1h2c0.6,0,1,0.4,1,1v6c0,0.6-0.4,1-1,1H5C4.4,7,4,6.6,4,6V0C4-0.6,4.4-1,5-1z"/>
				</g>
			</g>
			<defs>
				<filter id="Adobe_OpacityMaskFilter_4_" filterUnits="userSpaceOnUse" x="31" y="29" width="2" height="3">
					<feColorMatrix  type="matrix" values="1 0 0 0 0  0 1 0 0 0  0 0 1 0 0  0 0 0 1 0"/>
				</filter>
			</defs>
			<mask maskUnits="userSpaceOnUse" x="31" y="29" width="2" height="3" id="mask-4_3_">
				<g class="st13">
					<path id="path-3_3_" class="st3" d="M32.3,38C27,38,23,34,23,29.3c0-5.3,4-9.3,9.3-9.3c4.7,0,8.7,4,8.7,9.3
						C41,34,37,38,32.3,38z"/>
				</g>
			</mask>
			<path class="st14" d="M32.5,30v1.5c0,0.3-0.2,0.5-0.5,0.5s-0.5-0.2-0.5-0.5V30c-0.3,0-0.5-0.2-0.5-0.5s0.2-0.5,0.5-0.5h1
				c0.3,0,0.5,0.2,0.5,0.5S32.8,30,32.5,30z"/>
		</g>
	</g>
</g>
</svg>
